<svg width="391" height="411" viewBox="0 0 391 411" fill="none" xmlns="http://www.w3.org/2000/svg">
<path d="M167.574 61.6459C164.274 61.6749 160.993 61.8201 157.75 62.0523L158.099 66.8237C161.293 66.5914 164.419 66.4462 167.612 66.3882L167.583 61.6459H167.574ZM177.368 61.791L177.194 66.5333C180.388 66.6785 183.514 66.9398 186.649 67.2495L187.191 62.5362C183.949 62.1588 180.668 61.9362 177.368 61.791ZM147.975 63.1169C144.704 63.6009 141.452 64.1235 138.268 64.7816L139.217 69.4368C142.323 68.8367 145.449 68.2561 148.614 67.8302L147.985 63.1169H147.975ZM196.908 63.9202L196.105 68.6045C199.241 69.1755 202.396 69.7852 205.444 70.5014L206.538 65.8752C203.373 65.13 200.16 64.4428 196.908 63.9202ZM128.697 67.0269C125.532 67.8883 122.406 68.8368 119.299 69.8723L120.819 74.4114C123.809 73.3468 126.877 72.4564 129.926 71.6531L128.687 67.0269H128.697ZM216.013 68.4593L214.639 73.0274C217.687 73.9178 220.726 74.9824 223.688 76.076L225.352 71.595C222.304 70.4433 219.207 69.4077 216.013 68.4593ZM110.047 73.3177C107.376 74.4114 104.762 75.5631 102.236 76.7922C101.859 76.9374 101.491 77.1116 101.114 77.3052L102.295 79.7731L103.156 81.5829C106.001 80.2086 108.905 78.9117 111.866 77.731L110.056 73.3081L110.047 73.3177ZM234.46 75.3598L232.505 79.6957C235.408 80.9925 238.253 82.3668 241.07 83.8282L243.257 79.6376C240.354 78.1181 237.45 76.7051 234.469 75.3598H234.46ZM251.784 84.467L249.316 88.5512C252.074 90.1868 254.687 91.9385 257.3 93.7484L260.029 89.8384C257.358 87.9415 254.6 86.1607 251.784 84.467ZM267.927 95.7034L264.965 99.4101C267.462 101.423 269.882 103.465 272.263 105.556L275.456 102.052C272.988 99.8359 270.511 97.7164 267.927 95.7034ZM282.55 108.808L279.192 112.137C281.379 114.431 283.557 116.763 285.599 119.144L289.219 116.037C287.09 113.569 284.854 111.121 282.55 108.798V108.808ZM295.481 123.664L291.658 126.538C293.613 129.064 295.481 131.619 297.232 134.3L301.2 131.629C299.332 128.929 297.435 126.257 295.481 123.673V123.664ZM306.427 139.952L302.294 142.391C303.9 145.12 305.43 147.907 306.862 150.782L311.082 148.624C309.62 145.662 308.033 142.817 306.427 139.942V139.952ZM315.272 157.537L310.908 159.463C312.146 162.367 313.288 165.328 314.382 168.309L318.863 166.731C317.769 163.596 316.569 160.557 315.272 157.537ZM321.854 176.071L317.285 177.426C318.147 180.416 318.892 183.513 319.608 186.649L324.234 185.614C323.576 182.42 322.773 179.236 321.854 176.071ZM326.044 195.292L321.389 195.979C321.854 199.144 322.221 202.27 322.512 205.464L327.283 205.028C326.964 201.757 326.567 198.505 326.044 195.292ZM327.854 214.861L323.083 215.006C323.141 216.526 323.199 218.113 323.199 219.661C323.199 221.297 323.141 222.904 323.083 224.549L327.854 224.694C327.912 223.029 327.941 221.365 327.941 219.661C327.941 217.958 327.912 216.448 327.854 214.861ZM322.512 234.053C322.192 237.218 321.825 240.402 321.331 243.508L326.044 244.254C326.528 241.011 326.964 237.789 327.254 234.488L322.512 234.053ZM319.579 252.877C318.892 255.984 318.089 259.081 317.227 262.129L321.824 263.455C322.715 260.319 323.518 257.135 324.234 253.941L319.579 252.877ZM314.324 271.178C313.23 274.169 312.079 277.13 310.849 280.024L315.243 281.95C316.482 278.931 317.711 275.892 318.805 272.785L314.324 271.178ZM306.794 288.705C305.362 291.522 303.833 294.338 302.284 297.038L306.368 299.477C308.033 296.603 309.562 293.758 311.053 290.854L306.804 288.696L306.794 288.705ZM297.164 305.081C295.413 307.752 293.545 310.336 291.59 312.872L295.413 315.775C297.426 313.162 299.323 310.491 301.133 307.762L297.164 305.091V305.081ZM285.589 320.256C283.489 322.637 281.37 324.97 279.124 327.234L282.512 330.593C284.834 328.241 287.022 325.821 289.18 323.382L285.589 320.247V320.256ZM272.205 333.815C269.882 335.916 267.462 338.006 264.936 339.961L267.898 343.697C270.453 341.684 272.979 339.535 275.427 337.348L272.214 333.815H272.205ZM257.261 345.652C254.677 347.462 252.006 349.213 249.248 350.82L251.716 354.933C254.532 353.21 257.29 351.459 259.962 349.591L257.261 345.652ZM240.973 355.533C238.157 357.024 235.282 358.408 232.379 359.724L234.305 364.06C237.353 362.734 240.257 361.301 243.151 359.782L240.963 355.533H240.973ZM105.672 358.863L105.701 364.176C107.085 364.776 108.518 365.415 109.892 365.986L111.702 361.592C109.66 360.73 107.647 359.84 105.672 358.863ZM223.533 363.315C220.571 364.437 217.532 365.444 214.484 366.392L215.858 370.931C218.994 369.983 222.149 368.918 225.198 367.796L223.533 363.315ZM120.673 364.921L119.154 369.46C122.261 370.438 125.387 371.444 128.551 372.306L129.79 367.679C126.742 366.876 123.674 365.928 120.683 364.921H120.673ZM205.29 368.889C202.241 369.605 199.086 370.215 195.95 370.786L196.753 375.441C199.996 374.928 203.189 374.261 206.383 373.515L205.29 368.889ZM139.062 369.867L138.113 374.551C141.307 375.209 144.549 375.79 147.763 376.216L148.45 371.502C145.285 371.067 142.159 370.496 139.052 369.867H139.062ZM186.524 372.083C183.359 372.46 180.175 372.683 176.981 372.828L177.213 377.599C180.513 377.396 183.794 377.164 187.037 376.854L186.524 372.083ZM157.934 372.547L157.586 377.29C160.828 377.522 164.08 377.696 167.351 377.754L167.438 372.983C164.244 372.954 161.06 372.809 157.925 372.547H157.934Z" fill="#2AC0D4"/>
<path d="M385.323 219.671C386.697 297.397 342.574 373.09 274.575 410.719C326.218 383.116 365.87 334.164 381.645 277.682C386.997 258.858 389.842 239.299 390.094 219.681H385.332L385.323 219.671Z" fill="#2AC0D4"/>
<path d="M101.482 11.6583V14.3295C162.745 -4.96878 230.589 3.84804 288.184 37.0538L288.474 36.6764C235.592 -2.62667 163.229 -9.29492 101.482 11.668V11.6583Z" fill="#2AC0D4"/>
<path d="M151.468 35.6599C230.278 30.9756 307.984 75.3307 338.334 149.146C348.39 173.1 354.12 198.931 354.71 224.975C356.104 198.795 351.187 172.364 341.731 147.752C313.026 72.1466 231.158 25.2268 151.468 35.6599Z" fill="#2AC0D4"/>
<path d="M106.059 390.646L106.107 395.03C141.22 407.467 180.475 409.751 218.916 400.082C180.852 407.37 141.452 404.079 106.059 390.646Z" fill="#2AC0D4"/>
<path d="M160.321 58.0375C159.614 58.0963 158.991 57.9752 158.451 57.6744C157.914 57.3733 157.481 56.9074 157.15 56.2765C156.822 55.6455 156.619 54.8696 156.542 53.949C156.462 53.0314 156.529 52.2376 156.744 51.5676C156.962 50.8973 157.31 50.3717 157.787 49.9907C158.267 49.6068 158.859 49.3842 159.563 49.323C160.267 49.2617 160.887 49.3789 161.423 49.6745C161.962 49.9699 162.397 50.4288 162.727 51.0515C163.057 51.6713 163.26 52.4402 163.337 53.3581C163.418 54.2812 163.349 55.0819 163.132 55.7604C162.918 56.4386 162.573 56.9724 162.096 57.3616C161.619 57.7508 161.027 57.9761 160.321 58.0375ZM160.192 56.5625C160.675 56.5206 161.038 56.2447 161.284 55.7349C161.529 55.225 161.608 54.4854 161.521 53.516C161.466 52.8778 161.354 52.3521 161.186 51.939C161.02 51.5256 160.809 51.2224 160.552 51.0295C160.298 50.8363 160.01 50.7537 159.69 50.7816C159.21 50.8232 158.848 51.0963 158.602 51.6006C158.356 52.105 158.273 52.8353 158.354 53.7915C158.41 54.4379 158.521 54.9719 158.687 55.3935C158.856 55.8121 159.069 56.1193 159.326 56.3149C159.583 56.5079 159.872 56.5904 160.192 56.5625Z" fill="#2AC0D4"/>
<path d="M177.298 48.6768L177.241 57.123L175.455 57.1109L175.501 50.3597L175.451 50.3594L173.509 51.5587L173.52 49.975L175.62 48.6654L177.298 48.6768Z" fill="#2AC0D4"/>
<path d="M190.214 57.9544C189.508 57.8802 188.919 57.6451 188.445 57.2489C187.974 56.853 187.634 56.3143 187.427 55.6328C187.222 54.9516 187.168 54.1516 187.264 53.2327C187.356 52.3164 187.571 51.5491 187.907 50.9309C188.246 50.313 188.685 49.8615 189.226 49.5762C189.769 49.2885 190.392 49.1802 191.095 49.2514C191.798 49.3226 192.385 49.5534 192.857 49.9438C193.331 50.3345 193.673 50.8665 193.881 51.5398C194.089 52.2103 194.146 53.0036 194.05 53.9197C193.957 54.8416 193.741 55.6156 193.401 56.2417C193.064 56.868 192.625 57.328 192.084 57.6214C191.543 57.9148 190.92 58.0258 190.214 57.9544ZM190.363 56.4813C190.844 56.5301 191.253 56.3269 191.589 55.8718C191.926 55.4167 192.141 54.7048 192.237 53.7361C192.301 53.0988 192.289 52.5614 192.201 52.1241C192.115 51.6871 191.964 51.3499 191.748 51.1124C191.534 50.8753 191.267 50.7405 190.947 50.7081C190.469 50.6596 190.061 50.8602 189.726 51.3098C189.39 51.7595 189.173 52.4615 189.073 53.4159C189.008 54.0615 189.018 54.6069 189.102 55.0521C189.19 55.4949 189.342 55.8364 189.558 56.0766C189.775 56.314 190.043 56.4489 190.363 56.4813Z" fill="#2AC0D4"/>
<path d="M208.642 51.9291L207.004 60.2152L205.252 59.869L206.561 53.2457L206.512 53.2361L204.38 54.0506L204.687 52.497L206.995 51.6036L208.642 51.9291Z" fill="#2AC0D4"/>
<path d="M219.617 63.4603C218.938 63.2552 218.403 62.9137 218.011 62.4357C217.623 61.9586 217.39 61.3658 217.314 60.6576C217.241 59.9501 217.337 59.154 217.604 58.2694C217.866 57.3866 218.221 56.6731 218.667 56.1289C219.116 55.5855 219.632 55.2243 220.216 55.0453C220.803 54.8645 221.436 54.8749 222.113 55.0765C222.79 55.2781 223.324 55.6149 223.714 56.0868C224.107 56.5595 224.343 57.146 224.421 57.8464C224.5 58.5441 224.407 59.334 224.142 60.2159C223.877 61.104 223.519 61.8237 223.068 62.375C222.62 62.9272 222.103 63.2967 221.516 63.4836C220.93 63.6705 220.297 63.6627 219.617 63.4603ZM220.039 62.0412C220.503 62.1793 220.943 62.0563 221.358 61.6723C221.774 61.2882 222.119 60.6294 222.394 59.6958C222.577 59.0818 222.666 58.5517 222.661 58.1056C222.659 57.6603 222.574 57.3007 222.406 57.0269C222.24 56.7539 222.004 56.5715 221.695 56.4797C221.234 56.3424 220.796 56.4632 220.382 56.8419C219.969 57.2207 219.623 57.8695 219.347 58.7884C219.162 59.4103 219.069 59.9479 219.069 60.4011C219.072 60.8525 219.158 61.2164 219.325 61.4928C219.493 61.7666 219.731 61.9494 220.039 62.0412Z" fill="#2AC0D4"/>
<path d="M238.85 60.9982L235.693 68.8324L234.037 68.1648L236.561 61.9029L236.515 61.8844L234.267 62.286L234.859 60.8171L237.294 60.3708L238.85 60.9982Z" fill="#2AC0D4"/>
<path d="M247.435 74.3625C246.805 74.0366 246.341 73.6028 246.044 73.0613C245.749 72.521 245.629 71.8958 245.684 71.1856C245.742 70.4766 245.982 69.7117 246.406 68.8908C246.826 68.071 247.305 67.4345 247.843 66.9811C248.384 66.529 248.958 66.2685 249.565 66.1994C250.175 66.1292 250.795 66.2552 251.424 66.5775C252.053 66.8997 252.516 67.3285 252.813 67.8639C253.113 68.4005 253.237 69.0202 253.186 69.7231C253.136 70.4235 252.9 71.183 252.477 72.0014C252.055 72.8261 251.571 73.4681 251.027 73.9276C250.485 74.3883 249.909 74.6568 249.298 74.7331C248.687 74.8095 248.066 74.686 247.435 74.3625ZM248.11 73.0448C248.541 73.2655 248.996 73.2251 249.474 72.9236C249.953 72.6221 250.413 72.0377 250.855 71.1702C251.147 70.6 251.331 70.0952 251.408 69.6558C251.488 69.2176 251.47 68.8485 251.355 68.5485C251.242 68.2499 251.043 68.0272 250.756 67.8805C250.328 67.6611 249.876 67.6996 249.399 67.9962C248.923 68.2928 248.465 68.8674 248.025 69.7202C247.729 70.2976 247.539 70.8092 247.456 71.2547C247.377 71.6991 247.394 72.0724 247.508 72.3748C247.623 72.6748 247.824 72.8981 248.11 73.0448Z" fill="#2AC0D4"/>
<path d="M266.786 75.4656L262.244 82.5869L260.738 81.6266L264.369 75.9345L264.327 75.9079L262.044 75.89L262.896 74.5548L265.371 74.563L266.786 75.4656Z" fill="#2AC0D4"/>
<path d="M280.021 96.0421C279.489 95.5724 279.146 95.0388 278.989 94.4411C278.835 93.8453 278.871 93.2097 279.098 92.5343C279.326 91.8608 279.746 91.1776 280.357 90.4847C280.964 89.7921 281.584 89.2915 282.217 88.983C282.851 88.6764 283.471 88.5635 284.077 88.6445C284.686 88.7253 285.256 88.9986 285.787 89.4644C286.319 89.9302 286.663 90.459 286.821 91.0506C286.981 91.6441 286.95 92.2755 286.729 92.9446C286.51 93.6118 286.096 94.2907 285.487 94.9815C284.876 95.6782 284.25 96.1831 283.611 96.4959C282.973 96.8106 282.348 96.9306 281.737 96.8558C281.127 96.7809 280.554 96.5097 280.021 96.0421ZM280.997 94.9288C281.361 95.2478 281.812 95.3194 282.35 95.1438C282.888 94.9682 283.476 94.5135 284.116 93.7798C284.538 93.2981 284.84 92.8535 285.022 92.446C285.206 92.0404 285.278 91.6781 285.24 91.3591C285.203 91.042 285.064 90.7774 284.822 90.5653C284.461 90.2482 284.012 90.1753 283.478 90.3468C282.944 90.5183 282.359 90.9639 281.725 91.6837C281.297 92.1716 280.989 92.6215 280.799 93.0333C280.614 93.4449 280.54 93.8112 280.576 94.1322C280.615 94.4512 280.755 94.7167 280.997 94.9288Z" fill="#2AC0D4"/>
<path d="M298.517 101.816L292.377 107.616L291.151 106.318L296.059 101.682L296.025 101.646L293.815 101.072L294.966 99.985L297.365 100.596L298.517 101.816Z" fill="#2AC0D4"/>
<path d="M300.764 117.58C300.329 117.019 300.092 116.43 300.05 115.814C300.01 115.2 300.165 114.582 300.514 113.961C300.865 113.342 301.405 112.75 302.135 112.184C302.861 111.617 303.564 111.242 304.243 111.057C304.924 110.875 305.554 110.88 306.133 111.073C306.717 111.267 307.226 111.642 307.66 112.199C308.095 112.756 308.334 113.34 308.378 113.951C308.424 114.564 308.276 115.178 307.933 115.794C307.593 116.408 307.059 116.998 306.331 117.562C305.601 118.132 304.892 118.511 304.204 118.698C303.519 118.888 302.883 118.888 302.297 118.7C301.711 118.513 301.2 118.139 300.764 117.58ZM301.931 116.669C302.229 117.05 302.658 117.205 303.219 117.134C303.781 117.062 304.444 116.726 305.21 116.125C305.715 115.731 306.095 115.351 306.35 114.984C306.606 114.62 306.745 114.278 306.767 113.958C306.791 113.639 306.704 113.353 306.506 113.1C306.21 112.72 305.784 112.565 305.227 112.633C304.67 112.701 304.012 113.03 303.254 113.618C302.742 114.017 302.355 114.401 302.092 114.77C301.833 115.14 301.691 115.485 301.667 115.808C301.645 116.128 301.733 116.415 301.931 116.669Z" fill="#2AC0D4"/>
<path d="M317.86 126.727L310.742 131.275L309.781 129.77L315.47 126.135L315.443 126.093L313.38 125.116L314.714 124.263L316.956 125.312L317.86 126.727Z" fill="#2AC0D4"/>
<path d="M317.104 142.593C316.782 141.961 316.658 141.339 316.732 140.725C316.807 140.115 317.074 139.537 317.532 138.992C317.992 138.449 318.633 137.967 319.456 137.547C320.275 137.126 321.035 136.887 321.737 136.833C322.44 136.78 323.058 136.903 323.591 137.2C324.128 137.499 324.559 137.963 324.882 138.591C325.205 139.219 325.332 139.837 325.261 140.446C325.192 141.056 324.932 141.632 324.481 142.174C324.032 142.714 323.398 143.194 322.577 143.613C321.753 144.037 320.986 144.277 320.276 144.333C319.567 144.391 318.943 144.274 318.402 143.98C317.861 143.686 317.428 143.224 317.104 142.593ZM318.42 141.916C318.642 142.346 319.035 142.578 319.6 142.612C320.165 142.646 320.879 142.439 321.743 141.992C322.313 141.699 322.757 141.396 323.075 141.083C323.395 140.774 323.596 140.463 323.677 140.152C323.76 139.844 323.727 139.547 323.58 139.261C323.36 138.833 322.97 138.601 322.41 138.564C321.85 138.528 321.143 138.728 320.288 139.164C319.711 139.461 319.259 139.766 318.932 140.08C318.609 140.395 318.405 140.709 318.321 141.021C318.24 141.331 318.273 141.63 318.42 141.916Z" fill="#2AC0D4"/>
<path d="M324.054 157.611C323.799 156.949 323.739 156.317 323.876 155.714C324.014 155.115 324.338 154.567 324.851 154.072C325.364 153.579 326.051 153.166 326.913 152.833C327.771 152.498 328.551 152.339 329.255 152.357C329.959 152.377 330.561 152.562 331.061 152.913C331.565 153.265 331.945 153.771 332.202 154.429C332.459 155.087 332.522 155.715 332.389 156.313C332.257 156.913 331.939 157.46 331.435 157.952C330.933 158.443 330.253 158.855 329.394 159.187C328.531 159.524 327.743 159.684 327.031 159.667C326.32 159.653 325.71 159.471 325.203 159.124C324.695 158.776 324.312 158.271 324.054 157.611ZM325.433 157.072C325.609 157.523 325.976 157.794 326.535 157.886C327.093 157.978 327.825 157.846 328.731 157.489C329.327 157.256 329.8 157.001 330.149 156.723C330.499 156.447 330.731 156.159 330.843 155.858C330.957 155.56 330.956 155.261 330.838 154.961C330.663 154.513 330.299 154.242 329.746 154.148C329.193 154.054 328.469 154.181 327.574 154.527C326.97 154.763 326.489 155.02 326.131 155.299C325.777 155.579 325.542 155.87 325.427 156.171C325.314 156.472 325.316 156.773 325.433 157.072Z" fill="#2AC0D4"/>
<path d="M337.823 171.26L329.704 173.588L329.211 171.872L335.701 170.011L335.688 169.963L333.989 168.438L335.511 168.002L337.36 169.647L337.823 171.26Z" fill="#2AC0D4"/>
<path d="M341.113 184.959L332.829 186.605L332.48 184.854L339.102 183.538L339.093 183.489L337.526 181.828L339.08 181.52L340.786 183.312L341.113 184.959Z" fill="#2AC0D4"/>
<path d="M335.411 208.73C335.381 208.022 335.528 207.404 335.851 206.877C336.175 206.354 336.658 205.94 337.302 205.635C337.947 205.334 338.73 205.164 339.653 205.125C340.573 205.084 341.364 205.184 342.024 205.427C342.685 205.672 343.195 206.041 343.556 206.534C343.92 207.03 344.117 207.631 344.149 208.337C344.181 209.042 344.038 209.657 343.72 210.181C343.403 210.707 342.926 211.122 342.29 211.426C341.657 211.73 340.881 211.901 339.96 211.94C339.035 211.981 338.237 211.88 337.569 211.634C336.9 211.392 336.381 211.025 336.012 210.532C335.643 210.04 335.443 209.439 335.411 208.73ZM336.89 208.664C336.912 209.147 337.172 209.522 337.671 209.789C338.17 210.055 338.906 210.165 339.878 210.118C340.518 210.09 341.048 210 341.468 209.849C341.888 209.7 342.2 209.502 342.403 209.253C342.607 209.007 342.701 208.724 342.687 208.402C342.665 207.922 342.407 207.548 341.914 207.281C341.42 207.015 340.694 206.901 339.735 206.942C339.087 206.971 338.549 207.06 338.121 207.209C337.695 207.36 337.379 207.56 337.173 207.809C336.97 208.057 336.875 208.342 336.89 208.664Z" fill="#2AC0D4"/>
<path d="M344.056 226.094L335.62 225.681L335.707 223.897L342.45 224.227L342.452 224.178L341.336 222.187L342.918 222.264L344.138 224.417L344.056 226.094Z" fill="#2AC0D4"/>
<path d="M334.241 238.602C334.345 237.9 334.605 237.321 335.02 236.864C335.436 236.41 335.988 236.093 336.678 235.915C337.367 235.739 338.169 235.718 339.083 235.853C339.994 235.984 340.752 236.23 341.355 236.592C341.958 236.957 342.391 237.415 342.653 237.967C342.918 238.521 343 239.148 342.899 239.848C342.799 240.547 342.543 241.124 342.133 241.579C341.723 242.037 341.177 242.356 340.496 242.535C339.817 242.715 339.022 242.738 338.111 242.604C337.194 242.472 336.429 242.224 335.818 241.858C335.207 241.495 334.766 241.037 334.495 240.484C334.225 239.931 334.14 239.304 334.241 238.602ZM335.707 238.813C335.638 239.292 335.823 239.709 336.264 240.064C336.705 240.419 337.407 240.664 338.37 240.8C339.005 240.891 339.542 240.902 339.983 240.832C340.423 240.765 340.766 240.628 341.012 240.422C341.258 240.219 341.404 239.958 341.45 239.639C341.519 239.163 341.335 238.748 340.9 238.393C340.465 238.039 339.773 237.792 338.823 237.653C338.181 237.56 337.636 237.547 337.187 237.613C336.741 237.682 336.394 237.82 336.145 238.026C335.898 238.232 335.752 238.494 335.707 238.813Z" fill="#2AC0D4"/>
<path d="M331.201 254.872C331.377 254.185 331.696 253.636 332.157 253.225C332.617 252.817 333.2 252.56 333.904 252.454C334.608 252.35 335.407 252.413 336.303 252.642C337.196 252.867 337.923 253.191 338.486 253.614C339.048 254.039 339.431 254.54 339.634 255.116C339.84 255.695 339.856 256.327 339.683 257.012C339.51 257.698 339.196 258.245 338.741 258.655C338.286 259.067 337.709 259.327 337.013 259.435C336.319 259.544 335.526 259.484 334.634 259.256C333.735 259.029 333.001 258.702 332.431 258.275C331.861 257.85 331.47 257.349 331.258 256.771C331.047 256.193 331.028 255.56 331.201 254.872ZM332.637 255.235C332.519 255.704 332.66 256.138 333.061 256.537C333.462 256.936 334.135 257.253 335.08 257.489C335.701 257.645 336.234 257.712 336.68 257.688C337.125 257.667 337.48 257.567 337.747 257.387C338.012 257.211 338.185 256.966 338.263 256.654C338.381 256.188 338.242 255.756 337.846 255.358C337.45 254.96 336.787 254.643 335.858 254.405C335.228 254.247 334.687 254.177 334.235 254.196C333.784 254.218 333.424 254.319 333.155 254.498C332.888 254.677 332.716 254.923 332.637 255.235Z" fill="#2AC0D4"/>
<path d="M334.478 273.982L326.519 271.156L327.116 269.473L333.479 271.732L333.495 271.686L333 269.457L334.492 269.987L335.04 272.401L334.478 273.982Z" fill="#2AC0D4"/>
<path d="M321.47 283.153C321.771 282.51 322.186 282.03 322.716 281.712C323.244 281.396 323.864 281.252 324.576 281.279C325.286 281.309 326.06 281.519 326.897 281.911C327.733 282.298 328.387 282.752 328.861 283.272C329.334 283.795 329.617 284.358 329.71 284.962C329.804 285.569 329.702 286.193 329.405 286.834C329.107 287.475 328.697 287.955 328.174 288.272C327.649 288.593 327.035 288.741 326.33 288.718C325.628 288.695 324.86 288.489 324.026 288.099C323.186 287.709 322.525 287.251 322.045 286.725C321.563 286.201 321.272 285.636 321.172 285.029C321.072 284.421 321.171 283.796 321.47 283.153ZM322.813 283.776C322.609 284.215 322.667 284.667 322.987 285.134C323.307 285.601 323.909 286.038 324.793 286.445C325.374 286.715 325.886 286.879 326.328 286.939C326.769 287.001 327.137 286.969 327.432 286.842C327.726 286.718 327.941 286.51 328.077 286.218C328.279 285.781 328.223 285.331 327.908 284.867C327.593 284.402 327.001 283.967 326.132 283.561C325.543 283.287 325.024 283.118 324.576 283.052C324.129 282.99 323.756 283.022 323.459 283.148C323.163 283.275 322.948 283.484 322.813 283.776Z" fill="#2AC0D4"/>
<path d="M321.156 302.535L313.854 298.29L314.751 296.746L320.588 300.139L320.613 300.096L320.537 297.815L321.906 298.611L322 301.084L321.156 302.535Z" fill="#2AC0D4"/>
<path d="M306.69 309.145C307.104 308.569 307.601 308.174 308.18 307.958C308.757 307.745 309.393 307.718 310.088 307.875C310.781 308.035 311.503 308.384 312.253 308.923C313.003 309.458 313.564 310.024 313.934 310.623C314.303 311.223 314.477 311.829 314.457 312.439C314.438 313.054 314.223 313.648 313.813 314.224C313.402 314.799 312.911 315.195 312.338 315.411C311.763 315.629 311.132 315.662 310.444 315.509C309.759 315.358 309.042 315.014 308.293 314.477C307.539 313.939 306.974 313.368 306.598 312.762C306.221 312.159 306.039 311.55 306.053 310.935C306.066 310.319 306.278 309.723 306.69 309.145ZM307.896 310.005C307.615 310.399 307.589 310.855 307.817 311.372C308.046 311.89 308.557 312.43 309.351 312.993C309.873 313.365 310.346 313.621 310.769 313.761C311.191 313.903 311.559 313.939 311.873 313.869C312.184 313.801 312.434 313.636 312.621 313.374C312.9 312.982 312.927 312.529 312.703 312.014C312.479 311.5 311.977 310.963 311.198 310.404C310.669 310.027 310.191 309.765 309.762 309.618C309.334 309.475 308.962 309.438 308.646 309.507C308.333 309.577 308.083 309.743 307.896 310.005Z" fill="#2AC0D4"/>
<path d="M25.9665 247.223L17.7885 263.328H0L48.0715 167.175L80.1643 231.361H62.1339L48.0715 203.12L33.8929 231.361L25.9569 247.223H25.9665ZM96.1526 263.328H78.248L70.3119 247.339H88.1004L96.1526 263.328Z" fill="#2AC0D4"/>
<path d="M174.256 201.136H154.106C153.738 198.532 152.983 196.21 151.851 194.168C150.718 192.126 149.257 190.393 147.476 188.951C145.695 187.509 143.653 186.406 141.34 185.641C139.027 184.877 136.52 184.489 133.82 184.489C128.942 184.489 124.694 185.69 121.084 188.099C117.464 190.509 114.657 194.003 112.664 198.591C110.67 203.178 109.673 208.733 109.673 215.266C109.673 221.799 110.68 227.625 112.683 232.193C114.696 236.761 117.503 240.216 121.122 242.539C124.742 244.872 128.923 246.033 133.675 246.033C136.346 246.033 138.814 245.685 141.098 244.978C143.382 244.272 145.415 243.236 147.195 241.871C148.976 240.507 150.457 238.842 151.638 236.877C152.818 234.913 153.641 232.677 154.096 230.161L174.246 230.248C173.723 234.574 172.426 238.736 170.355 242.733C168.284 246.73 165.507 250.311 162.032 253.446C158.548 256.592 154.415 259.069 149.615 260.899C144.815 262.718 139.395 263.638 133.356 263.638C124.955 263.638 117.445 261.741 110.844 257.937C104.234 254.134 99.0272 248.627 95.2043 241.426C91.3911 234.216 89.4749 225.496 89.4749 215.256C89.4749 205.017 91.4105 196.248 95.2721 189.038C99.1337 181.828 104.379 176.34 110.999 172.547C117.619 168.762 125.071 166.865 133.356 166.865C138.814 166.865 143.876 167.63 148.56 169.169C153.235 170.698 157.387 172.934 161.006 175.866C164.626 178.799 167.578 182.37 169.862 186.609C172.146 190.838 173.607 195.687 174.256 201.146V201.136Z" fill="#2AC0D4"/>
<path d="M235.431 195.155C235.063 191.429 233.476 188.535 230.679 186.473C227.882 184.412 224.079 183.376 219.278 183.376C216.017 183.376 213.258 183.831 211.013 184.741C208.768 185.651 207.045 186.899 205.864 188.506C204.684 190.103 204.083 191.922 204.083 193.955C204.025 195.648 204.384 197.119 205.167 198.387C205.951 199.645 207.035 200.729 208.419 201.639C209.803 202.549 211.4 203.333 213.22 203.991C215.039 204.649 216.975 205.21 219.036 205.675L227.534 207.707C231.657 208.627 235.441 209.866 238.886 211.404C242.332 212.943 245.313 214.84 247.839 217.086C250.365 219.331 252.319 221.983 253.723 225.022C255.126 228.07 255.842 231.564 255.871 235.503C255.842 241.291 254.371 246.294 251.458 250.524C248.555 254.753 244.364 258.034 238.906 260.357C233.447 262.679 226.866 263.841 219.172 263.841C211.478 263.841 204.896 262.67 199.254 260.337C193.612 257.995 189.208 254.53 186.053 249.933C182.898 245.336 181.243 239.636 181.088 232.832H200.425C200.638 235.997 201.557 238.639 203.174 240.749C204.79 242.858 206.958 244.446 209.687 245.501C212.407 246.565 215.494 247.088 218.939 247.088C222.385 247.088 225.269 246.594 227.776 245.607C230.282 244.62 232.228 243.255 233.612 241.504C234.996 239.752 235.692 237.729 235.692 235.455C235.692 233.335 235.073 231.545 233.824 230.103C232.576 228.661 230.766 227.422 228.376 226.406C225.985 225.389 223.072 224.47 219.627 223.638L209.329 221.054C201.364 219.118 195.063 216.079 190.447 211.956C185.83 207.833 183.537 202.278 183.566 195.29C183.537 189.57 185.066 184.567 188.163 180.289C191.25 176.011 195.509 172.672 200.928 170.272C206.348 167.872 212.494 166.672 219.394 166.672C226.295 166.672 232.537 167.872 237.793 170.272C243.038 172.672 247.122 176.011 250.045 180.289C252.968 184.567 254.478 189.522 254.565 195.155H235.412H235.431Z" fill="#2AC0D4"/>
</svg>
